# xmcd
#
# Track frame offsets: 
#        150
#        6703
#        21658
#        37862
#        55434
#        74812
#        92010
#        109174
#        128600
#        131804
#        149400
#        165896
#        182175
#        201880
#        220157
#        236262
#        254683
#        269152
#        280926
#        301361
#        319019
#
# Disc length: 4486 seconds
#
# Revision: 0
# Processed by: cddbd v1.5.2PL0 Copyright (c) Steve Scherf et al.
# Submitted via: ExactAudioCopyFreeDBPlugin 1.0
#
DISCID=4a118415
DTITLE=Ne-Yo - Non-Fiction (Deluxe Edition)
DYEAR=2015
DGENRE=R&B
TTITLE0=Non-Fiction (Intro)
TTITLE1=Everybody Loves - The Def of You (Interlude)
TTITLE2=Run - An Island (Interlude) (feat. ScHoolboy Q)
TTITLE3=Integrity (feat. Charisse Mills)
TTITLE4=One More (feat. T.I.)
TTITLE5=Ne-Yo and Pitbull - Time of Our Lives
TTITLE6=Who's Taking You Home
TTITLE7=Coming With You
TTITLE8=Let You What… (Interlude)
TTITLE9=Take You There
TTITLE10=Good Morning - Gon' Ride (Interlude)
TTITLE11=Make It Easy
TTITLE12=Money Can't Buy (feat. Jeezy)
TTITLE13=Religious - Ratchet Wit Yo Friends (Interlude)
TTITLE14=She Knows (feat. Juicy J)
TTITLE15=She Said I'm Hood Tho (feat. Candice)
TTITLE16=Story Time
TTITLE17=Why
TTITLE18=Congratulations
TTITLE19=Worth It
TTITLE20=Body On You
EXTD=
EXTT0=
EXTT1=
EXTT2=
EXTT3=
EXTT4=
EXTT5=
EXTT6=
EXTT7=
EXTT8=
EXTT9=
EXTT10=
EXTT11=
EXTT12=
EXTT13=
EXTT14=
EXTT15=
EXTT16=
EXTT17=
EXTT18=
EXTT19=
EXTT20=
PLAYORDER=
